<svg width="1920" height="1080" fill="none" xmlns="http://www.w3.org/2000/svg">
  <g clip-path="url(#a)">
    <path d="M1920 0H0v1080h1920V0Z" fill="#12C2E9"/>
    <path d="M1496.69-1557.99c-108.09 126-448.9 528.98-648.553 755.961-199.652 226.983-340.169 408.767-549.355 605.943C89.5955 1.08986-167.52 168.897-406.982 381.027c-239.461 212.13-609.168 579.722-731.008 695.663l1561.296 1561.3L3057.99 3.30587 1496.69-1557.99Z" fill="#2EB6EA"/>
    <path d="M1756.91-1297.77c-57.9 83.22-178.97 322.466-347.4 499.348-168.43 176.883-475.316 393.699-663.18 561.948C558.466-68.2249 464.252 6.61148 282.329 211.072 100.407 415.533-151.856 802.651-345.206 990.291-538.556 1177.93-789.01 1279.14-877.77 1336.91L423.306 2637.99 3057.99 3.30592 1756.91-1297.77Z" fill="#6B9AEC"/>
    <path d="M2017.12-1037.56c-93.45 111.393-345.46 450.561-560.72 668.336-215.26 217.776-495.615 418.1398-730.831 638.321C490.353 489.278 268.958 730.524 45.1044 951.862-178.75 1173.2-507.112 1489.58-617.555 1597.12L423.306 2637.99 3057.99 3.30597 2017.12-1037.56Z" fill="#B27AED"/>
    <path d="M2277.34-777.34c-72.58 73.686-244.24 249.206-435.49 442.115-191.25 192.909-545.18 531.522-712.02 715.339C962.997 563.932 999.582 607.91 840.846 767.682 682.109 927.455 377.109 1157.14 177.411 1338.75c-199.6974 181.61-445.626 432.16-534.751 518.59l780.646 780.65L3057.99 3.30577 2277.34-777.34Z" fill="#D665B9"/>
    <path d="M2537.56-517.125c-87.32 56.873-392.62 201.135-523.87 341.236-131.26 140.1-138.16 366.305-263.66 499.366-125.5 133.062-373.08 211.775-489.34 299.003-116.25 87.228-95.46 92.419-208.19 224.363-112.729 131.944-323.281 422.147-468.181 567.307-144.9 145.15-287.642 186.41-401.216 303.65-113.5738 117.23-233.5229 333.13-280.2276 399.76l520.4306 520.43L3057.99 3.30587 2537.56-517.125Z" fill="#E25E96"/>
    <path d="M2797.77-256.909c-107.57 137.902-431.17 620.72-645.45 827.412-214.27 206.693-405.73 206.798-640.2 412.742-234.47 205.945-541.774 590.505-766.612 822.925-224.839 232.42-485.348 476.33-582.417 571.6l260.215 260.22L3057.99 3.30589 2797.77-256.909Z" fill="#ED5677"/>
  </g>
  <defs>
    <clipPath id="a">
      <path fill="#fff" d="M0 0h1920v1080H0z"/>
    </clipPath>
  </defs>
</svg>
